
        <svg xmlns="http://www.w3.org/2000/svg" xmlns:xlink="http://www.w3.org/1999/xlink" version="1.1" width="3162.2002820874472" 
        height="835.0489218031255" viewBox="0 0 3162.2002820874472 835.0489218031255">
			
			<g transform="scale(8.110014104372356) translate(10, 10)">
				<defs id="SvgjsDefs2866"></defs><g id="SvgjsG2867" featureKey="symbolFeature-0" transform="matrix(1.040733087784463,0,0,1.040733087784463,-14.163336806043166,-10.646699011625255)" fill="#ffb400"><g xmlns="http://www.w3.org/2000/svg"><path fill-rule="evenodd" clip-rule="evenodd" d="M80.11,49.695c0.003,5.951,1.481,10.771,3.303,10.771   c1.823,0,3.302-4.824,3.305-10.768c-0.003-5.951-1.479-10.773-3.303-10.773C81.591,38.926,80.107,43.748,80.11,49.695z"></path><path fill-rule="evenodd" clip-rule="evenodd" d="M39.138,14.154c-15.075,6.26-25.529,19.93-25.529,35.779   c-0.004,15.852,10.454,29.52,25.536,35.777C30.504,78.232,24.764,65,24.764,49.934S30.508,21.637,39.138,14.154z"></path><path fill-rule="evenodd" clip-rule="evenodd" d="M49.349,10.23c-7.066,0-12.803,17.854-12.803,39.857   c0,22.016,5.736,39.859,12.808,39.861c3.491-0.002,6.66-4.367,8.969-11.438c1.954,4.756,4.414,7.598,7.084,7.598   c6.367,0.002,11.532-16.066,11.527-35.883c0.005-19.816-5.156-35.887-11.521-35.879c-2.651,0-5.093,2.797-7.041,7.484   C56.057,14.668,52.871,10.234,49.349,10.23z M75.225,50.227c0.005,11.121-2.764,20.143-6.174,20.143   c-3.412,0-6.176-9.023-6.176-20.139c0-11.127,2.764-20.146,6.176-20.15C72.465,30.084,75.229,39.102,75.225,50.227z M57.792,23.318   c-2.395,6.576-3.907,16.191-3.907,26.908c-0.001,10.623,1.484,20.166,3.841,26.736c-1.15,1.559-2.418,2.424-3.748,2.424   c-5.202-0.004-9.414-13.117-9.414-29.299c0-16.174,4.212-29.293,9.407-29.293C55.333,20.797,56.626,21.701,57.792,23.318z"></path></g></g><g id="SvgjsG2868" featureKey="nameFeature-0" transform="matrix(1.1593263928994224,0,0,1.1593263928994224,95.63724724752053,12.406736071005776)" fill="#f6f6f6"><path d="M10.391 40 c-3.9063 0 -6.1328 -2.2656 -6.1328 -6.2695 l0 -9.4922 l-3.9453 0 l0 -4.3164 l1.2695 0 c2.1289 0 3.3008 -0.82031 3.3008 -3.8281 l0 -2.6563 l5.0781 0 l0 6.4844 l4.1406 0 l0 4.3164 l-4.1406 0 l0 8.8867 c0 1.7969 0.87891 2.5977 2.3242 2.5977 l1.8164 0 l0 4.2773 l-3.7109 0 z M37.343875 29.668 l-0.058594 1.3477 l-14.883 0 c0.23438 3.3398 2.4609 4.9414 5.1367 4.9414 c2.0117 0 3.5742 -0.9375 4.3359 -2.7148 l5.1563 0.76172 c-1.3281 4.0625 -4.9414 6.3867 -9.4531 6.3867 c-6.4844 0 -10.723 -3.8281 -10.723 -10.43 s4.3555 -10.469 10.547 -10.469 c5.6836 0 9.9219 3.1445 9.9414 10.176 z M27.441875 23.477 c-2.5586 0 -4.3359 1.1914 -4.8828 3.8672 l9.2188 0 c-0.29297 -2.5586 -2.0313 -3.8672 -4.3359 -3.8672 z M50.702937500000004 40.37109 c-6.3086 0 -10.762 -4.1992 -10.762 -10.43 c0 -6.25 4.4531 -10.41 10.762 -10.41 c5.0781 0 8.8867 2.6367 9.8633 7.3828 l-5.1953 0.56641 c-0.625 -2.4023 -2.3633 -3.5156 -4.7266 -3.5156 c-3.0273 0 -5.0781 2.3828 -5.0781 5.9766 c0 3.5742 2.0508 5.9766 5.0781 5.9766 c2.3633 0 4.1016 -1.1328 4.7266 -3.5156 l5.1953 0.56641 c-0.97656 4.7461 -4.8828 7.4023 -9.8633 7.4023 z M73.65215625 40.37109 c-6.3086 0 -10.762 -4.1992 -10.762 -10.43 c0 -6.25 4.4531 -10.41 10.762 -10.41 c5.0781 0 8.8867 2.6367 9.8633 7.3828 l-5.1953 0.56641 c-0.625 -2.4023 -2.3633 -3.5156 -4.7266 -3.5156 c-3.0273 0 -5.0781 2.3828 -5.0781 5.9766 c0 3.5742 2.0508 5.9766 5.0781 5.9766 c2.3633 0 4.1016 -1.1328 4.7266 -3.5156 l5.1953 0.56641 c-0.97656 4.7461 -4.8828 7.4023 -9.8633 7.4023 z M106.406375 29.668 l-0.058594 1.3477 l-14.883 0 c0.23438 3.3398 2.4609 4.9414 5.1367 4.9414 c2.0117 0 3.5742 -0.9375 4.3359 -2.7148 l5.1563 0.76172 c-1.3281 4.0625 -4.9414 6.3867 -9.4531 6.3867 c-6.4844 0 -10.723 -3.8281 -10.723 -10.43 s4.3555 -10.469 10.547 -10.469 c5.6836 0 9.9219 3.1445 9.9414 10.176 z M96.504375 23.477 c-2.5586 0 -4.3359 1.1914 -4.8828 3.8672 l9.2188 0 c-0.29297 -2.5586 -2.0313 -3.8672 -4.3359 -3.8672 z M110.6836375 40 l0 -30 l5.6836 0 l0 30 l-5.6836 0 z M141.07434375 29.668 l-0.058594 1.3477 l-14.883 0 c0.23438 3.3398 2.4609 4.9414 5.1367 4.9414 c2.0117 0 3.5742 -0.9375 4.3359 -2.7148 l5.1563 0.76172 c-1.3281 4.0625 -4.9414 6.3867 -9.4531 6.3867 c-6.4844 0 -10.723 -3.8281 -10.723 -10.43 s4.3555 -10.469 10.547 -10.469 c5.6836 0 9.9219 3.1445 9.9414 10.176 z M131.17234375 23.477 c-2.5586 0 -4.3359 1.1914 -4.8828 3.8672 l9.2188 0 c-0.29297 -2.5586 -2.0313 -3.8672 -4.3359 -3.8672 z M150.74220625 23.105 c1.0156 -1.7773 3.6523 -3.418 6.5625 -3.418 l0 5.0195 c-4.2578 0 -6.2891 1.25 -6.2891 5.5078 l0 9.7852 l-5.6641 0 l0 -20.078 l5.3906 0 l0 3.1836 z M177.0703125 34.5508 c0 2.4609 0.23438 4.0234 0.48828 4.9023 l0 0.54688 l-5.2539 0 l-0.44922 -2.1875 c-1.5039 1.8164 -4.1016 2.5781 -6.4453 2.5781 c-3.1641 0 -6.25 -1.4063 -6.25 -5.5859 c0 -4.1602 3.1055 -5.5664 7.3047 -6.4844 l3.3008 -0.74219 c1.4258 -0.33203 1.9336 -0.82031 1.9336 -1.6406 c0 -1.9727 -1.7969 -2.5195 -3.3789 -2.5195 c-2.0313 0 -3.5742 0.80078 -3.9258 3.0664 l-4.9805 -0.89844 c0.83984 -4.1602 3.8867 -6.0547 9.2188 -6.0547 c4.0234 0 8.4375 1.1914 8.4375 7.2461 l0 7.7734 z M167.1680125 36.582 c2.6758 0 4.8242 -1.7773 4.8242 -5.7617 l-4.7656 1.3477 c-1.5625 0.37109 -2.6953 0.91797 -2.6953 2.2656 c0 1.4453 1.1914 2.1484 2.6367 2.1484 z M190.01990625 40 c-3.9063 0 -6.1328 -2.2656 -6.1328 -6.2695 l0 -9.4922 l-3.9453 0 l0 -4.3164 l1.2695 0 c2.1289 0 3.3008 -0.82031 3.3008 -3.8281 l0 -2.6563 l5.0781 0 l0 6.4844 l4.1406 0 l0 4.3164 l-4.1406 0 l0 8.8867 c0 1.7969 0.87891 2.5977 2.3242 2.5977 l1.8164 0 l0 4.2773 l-3.7109 0 z M216.97278125 29.668 l-0.058594 1.3477 l-14.883 0 c0.23438 3.3398 2.4609 4.9414 5.1367 4.9414 c2.0117 0 3.5742 -0.9375 4.3359 -2.7148 l5.1563 0.76172 c-1.3281 4.0625 -4.9414 6.3867 -9.4531 6.3867 c-6.4844 0 -10.723 -3.8281 -10.723 -10.43 s4.3555 -10.469 10.547 -10.469 c5.6836 0 9.9219 3.1445 9.9414 10.176 z M207.07078125 23.477 c-2.5586 0 -4.3359 1.1914 -4.8828 3.8672 l9.2188 0 c-0.29297 -2.5586 -2.0313 -3.8672 -4.3359 -3.8672 z M228.32034375 40.39063 c-4.5117 0 -8.0078 -1.7773 -8.7305 -5.5859 l4.707 -1.3281 c0.60547 2.1484 2.1289 2.9883 4.0234 2.9883 c1.3867 0 2.8906 -0.42969 2.8516 -2.0117 c-0.019531 -2.0898 -3.1836 -2.2656 -6.3672 -3.3984 c-2.4023 -0.83984 -4.707 -2.1289 -4.707 -5.5078 c0 -4.1211 3.418 -6.0156 7.8711 -6.0156 c3.9063 0 7.168 1.4844 7.9492 5.3125 l-4.3555 0.97656 c-0.60547 -1.875 -1.9336 -2.5391 -3.5742 -2.5391 c-1.4844 0 -2.7539 0.52734 -2.7539 1.7773 c0 1.582 2.3242 1.8945 4.8438 2.5781 c3.1055 0.83984 6.5039 2.1875 6.5039 6.4844 c0 4.6094 -3.9258 6.2695 -8.2617 6.2695 z"></path></g>
			</g>
		</svg>
	