<svg width="110" height="30" viewBox="0 0 110 30" fill="none" xmlns="http://www.w3.org/2000/svg">
<path fill-rule="evenodd" clip-rule="evenodd" d="M24.7097 15.1033C24.7105 16.7776 25.1263 18.1337 25.6389 18.1337C26.1518 18.1337 26.5679 16.7765 26.5688 15.1042C26.5679 13.4299 26.1527 12.0732 25.6395 12.0732C25.1263 12.0735 24.7088 13.4302 24.7097 15.1033Z" fill="#FFB400"/>
<path fill-rule="evenodd" clip-rule="evenodd" d="M13.1824 5.10383C8.94118 6.86505 6 10.711 6 15.1701C5.99887 19.6299 8.94118 23.4754 13.1844 25.2357C10.7533 23.1318 9.1384 19.4091 9.1384 15.1703C9.1384 10.9316 10.7544 7.20913 13.1824 5.10383Z" fill="#FFB400"/>
<path fill-rule="evenodd" clip-rule="evenodd" d="M16.0551 4C14.0672 4 12.4531 9.02313 12.4531 15.2136C12.4531 21.4076 14.0669 26.4277 16.0565 26.4282C17.0387 26.4277 17.9303 25.1996 18.5799 23.2102C19.1297 24.5483 19.8218 25.3479 20.573 25.3479C22.3643 25.3484 23.8174 20.8278 23.816 15.2524C23.8174 9.67725 22.3654 5.15576 20.5747 5.15801C19.8288 5.15801 19.1418 5.94494 18.5937 7.2636C17.9424 5.24861 17.046 4.00113 16.0551 4ZM23.3352 15.2529C23.3366 18.3818 22.5576 20.9201 21.5982 20.9201C20.6382 20.9201 19.8606 18.3815 19.8606 15.2541C19.8606 12.1235 20.6382 9.5861 21.5982 9.58497C22.5587 9.58582 23.3363 12.123 23.3352 15.2529ZM18.4305 7.68224C17.7567 9.53236 17.3313 12.2375 17.3313 15.2527C17.331 18.2414 17.7488 20.9263 18.412 22.7747C18.0884 23.2133 17.7317 23.4567 17.3575 23.4567C15.8939 23.4555 14.7089 19.7663 14.7089 15.2136C14.7089 10.6631 15.8939 6.97212 17.3555 6.97212C17.7387 6.97297 18.1025 7.2273 18.4305 7.68224Z" fill="#FFB400"/>
<path d="M35.1098 19.89C33.8856 19.89 33.1878 19.1799 33.1878 17.9251V14.9502H31.9513V13.5974H32.3492C33.0164 13.5974 33.3837 13.3403 33.3837 12.3977V11.5652H34.9752V13.5974H36.2729V14.9502H34.9752V17.7353C34.9752 18.2985 35.2506 18.5494 35.7036 18.5494H36.2729V19.89H35.1098ZM43.557 16.6519L43.5386 17.0742H38.8742C38.9477 18.121 39.6455 18.6229 40.4841 18.6229C41.1146 18.6229 41.6043 18.3291 41.843 17.7721L43.459 18.0108C43.0428 19.284 41.9103 20.0124 40.4964 20.0124C38.4641 20.0124 37.1357 18.8127 37.1357 16.7436C37.1357 14.6745 38.5008 13.4626 40.4412 13.4626C42.2225 13.4626 43.5509 14.4482 43.557 16.6519ZM40.4537 14.7116C39.6518 14.7116 39.0948 15.085 38.9234 15.9236H41.8126C41.7208 15.1217 41.1759 14.7116 40.4537 14.7116ZM47.7438 20.0063C45.7666 20.0063 44.3709 18.6902 44.3709 16.7375C44.3709 14.7787 45.7665 13.4749 47.7438 13.4749C49.3353 13.4749 50.5289 14.3013 50.835 15.7887L49.2068 15.9662C49.0109 15.2133 48.4661 14.8644 47.7254 14.8644C46.7766 14.8644 46.1339 15.6112 46.1339 16.7375C46.1339 17.8577 46.7766 18.6106 47.7254 18.6106C48.4661 18.6106 49.0109 18.2556 49.2068 17.5088L50.835 17.6863C50.5289 19.1738 49.3047 20.0063 47.7438 20.0063ZM54.9362 20.0063C52.959 20.0063 51.5633 18.6902 51.5633 16.7375C51.5633 14.7787 52.9589 13.4749 54.9362 13.4749C56.5277 13.4749 57.7213 14.3013 58.0274 15.7887L56.3991 15.9662C56.2033 15.2133 55.6585 14.8644 54.9178 14.8644C53.969 14.8644 53.3263 15.6112 53.3263 16.7375C53.3263 17.8577 53.969 18.6106 54.9178 18.6106C55.6585 18.6106 56.2033 18.2556 56.3991 17.5088L58.0274 17.6863C57.7213 19.1738 56.4971 20.0063 54.9362 20.0063ZM65.2015 16.6519L65.1831 17.0742H60.5187C60.5922 18.121 61.29 18.6229 62.1286 18.6229C62.7591 18.6229 63.2488 18.3291 63.4875 17.7721L65.1035 18.0108C64.6873 19.284 63.5548 20.0124 62.1408 20.0124C60.1086 20.0124 58.7802 18.8127 58.7802 16.7436C58.7802 14.6745 60.1452 13.4626 62.0857 13.4626C63.8669 13.4626 65.1954 14.4482 65.2015 16.6519ZM62.0982 14.7116C61.2963 14.7116 60.7393 15.085 60.5679 15.9236H63.4571C63.3653 15.1217 62.8204 14.7116 62.0982 14.7116ZM66.542 19.89V10.4878H68.3233V19.89H66.542ZM76.0666 16.6519L76.0482 17.0742H71.3838C71.4573 18.121 72.1551 18.6229 72.9937 18.6229C73.6242 18.6229 74.1138 18.3291 74.3526 17.7721L75.9686 18.0108C75.5523 19.284 74.4199 20.0124 73.0059 20.0124C70.9737 20.0124 69.6453 18.8127 69.6453 16.7436C69.6453 14.6745 71.0103 13.4626 72.9508 13.4626C74.732 13.4626 76.0605 14.4482 76.0666 16.6519ZM72.9632 14.7116C72.1614 14.7116 71.6044 15.085 71.433 15.9236H74.3222C74.2303 15.1217 73.6855 14.7116 72.9632 14.7116ZM79.0965 14.595C79.4148 14.038 80.2412 13.5238 81.1532 13.5238V15.0969C79.8188 15.0969 79.1822 15.4887 79.1822 16.8231V19.8898H77.4071V13.5973H79.0965L79.0965 14.595ZM87.3479 18.1822C87.3479 18.9534 87.4213 19.4431 87.5009 19.7186V19.89H85.8543L85.7135 19.2044C85.2422 19.7737 84.4281 20.0124 83.6935 20.0124C82.7019 20.0124 81.7348 19.5716 81.7348 18.2617C81.7348 16.9579 82.708 16.5172 84.0241 16.2295L85.0586 15.9969C85.5054 15.8928 85.6646 15.7398 85.6646 15.4827C85.6646 14.8645 85.1014 14.6931 84.6056 14.6931C83.969 14.6931 83.4854 14.9441 83.3752 15.6541L81.8143 15.3725C82.0775 14.0687 83.0324 13.475 84.7035 13.475C85.9645 13.475 87.3479 13.8484 87.3479 15.7459L87.3479 18.1822ZM84.2444 18.8187C85.0831 18.8187 85.7564 18.2617 85.7564 17.013L84.2628 17.4354C83.7731 17.5517 83.4181 17.7231 83.4181 18.1454C83.4181 18.5984 83.7915 18.8187 84.2444 18.8187ZM91.4063 19.89C90.1821 19.89 89.4843 19.1799 89.4843 17.9251V14.9502H88.2478V13.5974H88.6457C89.3129 13.5974 89.6802 13.3403 89.6802 12.3977V11.5652H91.2717V13.5974H92.5693V14.9502H91.2717V17.7353C91.2717 18.2985 91.5471 18.5494 92.0001 18.5494H92.5693V19.89H91.4063ZM99.8535 16.6519L99.8351 17.0742H95.1707C95.2442 18.121 95.942 18.6229 96.7806 18.6229C97.4111 18.6229 97.9007 18.3291 98.1395 17.7721L99.7555 18.0108C99.3392 19.284 98.2068 20.0124 96.7928 20.0124C94.7606 20.0124 93.4322 18.8127 93.4322 16.7436C93.4322 14.6745 94.7972 13.4626 96.7377 13.4626C98.5189 13.4626 99.8474 14.4482 99.8535 16.6519ZM96.7501 14.7116C95.9483 14.7116 95.3913 15.085 95.2199 15.9236H98.1091C98.0172 15.1217 97.4724 14.7116 96.7501 14.7116ZM103.41 20.0124C101.996 20.0124 100.9 19.4554 100.674 18.2617L102.149 17.8455C102.339 18.5188 102.816 18.7821 103.41 18.7821C103.844 18.7821 104.316 18.6474 104.304 18.1516C104.297 17.4966 103.306 17.4415 102.308 17.0865C101.555 16.8233 100.833 16.4193 100.833 15.3603C100.833 14.0688 101.904 13.475 103.3 13.475C104.524 13.475 105.546 13.9402 105.791 15.14L104.426 15.446C104.236 14.8584 103.82 14.6503 103.306 14.6503C102.841 14.6503 102.443 14.8155 102.443 15.2073C102.443 15.7031 103.171 15.801 103.961 16.0153C104.934 16.2785 105.999 16.7009 105.999 18.0475C105.999 19.4921 104.769 20.0124 103.41 20.0124Z" fill="#F6F6F6"/>
</svg>
